Coordinates
version=1
nRows=8
nColumns=46
inDegrees=yes

Units are S.I. units (second, meters, Newtons, ...)
Angles are in degrees.

endheader
time	pelvis_tilt	pelvis_list	pelvis_rotation	pelvis_tx	pelvis_ty	pelvis_tz	bb_angle	bb_tx	bb_ty	bb_tz	hip_flexion_r	hip_adduction_r	hip_rotation_r	knee_angle_r	knee_angle_r_beta	ankle_angle_r	subtalar_angle_r	mtp_angle_r	crank_angle_r	hip_flexion_l	hip_adduction_l	hip_rotation_l	knee_angle_l	knee_angle_l_beta	ankle_angle_l	subtalar_angle_l	mtp_angle_l	crank_angle_l	lumbar_extension	lumbar_bending	lumbar_rotation	arm_flex_r	arm_add_r	arm_rot_r	elbow_flex_r	pro_sup_r	wrist_flex_r	wrist_dev_r	arm_flex_l	arm_add_l	arm_rot_l	elbow_flex_l	pro_sup_l	wrist_flex_l	wrist_dev_l
      7.50000000	    -28.09941949	    -14.01963729	     -6.67677707	      0.44403163	      1.04568237	     -0.26098367	      0.00000000	      0.50000000	      0.00000000	      0.25000000	     68.61284164	      7.49208194	     -0.64635236	    112.87223746	      1.96999218	      4.95376380	      5.96907945	      0.00000000	      0.00000000	     37.22084998	    -19.34243542	      1.78049899	     33.64387973	      0.58719647	     -3.83263107	     -4.18377922	      0.00000000	      0.00000000	    -56.89372186	      4.57497463	      8.81621467	     39.12078795	    -17.71242363	     14.56740494	     91.54197420	     52.59398717	      0.00000000	      0.00000000	     27.94423219	    -21.16219123	     10.27693428	    105.49099667	     50.58791155	      0.00000000	      0.00000000
      7.50500000	    -27.93499258	    -13.77274462	     -7.60597449	      0.44463131	      1.04589824	     -0.26160408	      0.00000000	      0.50000000	      0.00000000	      0.25000000	     69.69319186	      7.82662295	     -0.02638722	    113.69076600	      1.98427820	      5.83302831	      6.85136296	      0.00000000	      0.00000000	     35.33726058	    -19.66285383	      0.40832532	     32.49078150	      0.56707111	     -4.71702375	     -3.17692792	      0.00000000	      0.00000000	    -57.23272968	      4.53005406	      9.18600692	     39.59863194	    -17.87947654	     15.41655567	     91.85353439	     52.72543853	      0.00000000	      0.00000000	     27.46377827	    -21.45652911	      9.56575984	    105.31037530	     50.48774809	      0.00000000	      0.00000000
      7.51000000	    -28.00718734	    -13.51625281	     -8.70027034	      0.44484868	      1.04596839	     -0.26153695	      0.00000000	      0.50000000	      0.00000000	      0.25000000	     71.04160913	      8.34203604	      0.47955102	    114.32481927	      1.99534451	      6.49914055	      7.31560898	      0.00000000	      0.00000000	     33.80384907	    -20.11709699	     -1.26382463	     31.51203242	      0.54998872	     -5.50744775	     -2.32606758	      0.00000000	      0.00000000	    -57.34375500	      4.40145947	      9.61388098	     40.11371459	    -17.86296769	     16.11146336	     91.99780135	     52.81822109	      0.00000000	      0.00000000	     26.83384966	    -21.70965296	      9.30369242	    105.07575202	     50.43231110	      0.00000000	      0.00000000
      7.51500000	    -28.06656506	    -13.26247146	     -9.73050606	      0.44547181	      1.04628698	     -0.26127482	      0.00000000	      0.50000000	      0.00000000	      0.25000000	     72.25649884	      8.90211829	      0.92584831	    114.75037509	      2.00277186	      7.22713552	      7.67992893	      0.00000000	      0.00000000	     32.34098962	    -20.59775011	     -3.25869582	     30.75878721	      0.53684211	     -5.81076324	     -1.36437090	      0.00000000	      0.00000000	    -57.47975888	      4.27721147	     10.08842260	     40.56642432	    -17.87253237	     16.82786769	     92.04391248	     52.89813907	      0.00000000	      0.00000000	     26.27833049	    -21.95149095	      8.97752048	    104.86242395	     50.37428751	      0.00000000	      0.00000000
      7.52000000	    -28.04700356	    -12.97544431	    -10.50519795	      0.44609129	      1.04710620	     -0.26170866	      0.00000000	      0.50000000	      0.00000000	      0.25000000	     73.28021568	      9.11536697	      1.25144195	    114.98574425	      2.00687983	      8.01239385	      8.07497272	      0.00000000	      0.00000000	     30.94149481	    -20.78632616	     -4.92965150	     30.09977909	      0.52534025	     -6.55249897	     -0.41661623	      0.00000000	      0.00000000	    -57.77646982	      4.38291235	     10.43415062	     41.14776947	    -17.87964604	     17.49514353	     92.17412562	     52.98336095	      0.00000000	      0.00000000	     25.83956834	    -22.06784108	      8.72333959	    104.49189755	     50.29650938	      0.00000000	      0.00000000
      7.52500000	    -28.20139405	    -12.76661582	    -11.12528877	      0.44665765	      1.04777560	     -0.26237375	      0.00000000	      0.50000000	      0.00000000	      0.25000000	     74.37609685	      9.17752111	      1.36756940	    115.06587528	      2.00827838	      8.89372927	      8.49507162	      0.00000000	      0.00000000	     29.95679190	    -20.96007118	     -6.32577663	     29.71166334	      0.51856635	     -7.34261132	      0.53256477	      0.00000000	      0.00000000	    -57.94604134	      4.63868725	     10.76317538	     41.69200987	    -18.00863207	     18.18429510	     92.29293957	     53.06918801	      0.00000000	      0.00000000	     25.44087412	    -22.06084576	      8.40746488	    104.12926484	     50.21562433	      0.00000000	      0.00000000
      7.53000000	    -28.40253580	    -12.48655447	    -11.58135795	      0.44703704	      1.04865789	     -0.26320440	      0.00000000	      0.50000000	      0.00000000	      0.25000000	     75.46960312	      9.07335622	      1.41029956	    114.98567517	      2.00687862	      9.61894297	      8.49452896	      0.00000000	      0.00000000	     29.22474098	    -20.94497264	     -7.43462206	     29.49734925	      0.51482587	     -8.26658832	      1.05791895	      0.00000000	      0.00000000	    -58.08238284	      5.01417413	     11.08948267	     42.20992338	    -17.96590046	     18.33847740	     92.51838697	     53.11425099	      0.00000000	      0.00000000	     25.25623477	    -21.99681492	      8.36596701	    103.88075382	     50.17413182	      0.00000000	      0.00000000
      7.53500000	    -28.20437207	    -11.93343461	    -12.42282957	      0.44793440	      1.05056194	     -0.26343260	      0.00000000	      0.50000000	      0.00000000	      0.25000000	     76.02412671	      9.33884043	      1.98482454	    114.68934560	      2.00170670	     10.50068336	      9.09389255	      0.00000000	      0.00000000	     27.75312311	    -20.85191939	     -9.43864118	     29.12514037	      0.50832959	     -9.01058579	      2.04254660	      0.00000000	      0.00000000	    -58.62714348	      4.73614153	     11.33196594	     42.90637078	    -18.29979141	     19.46029170	     92.62923790	     53.24030152	      0.00000000	      0.00000000	     25.17234362	    -21.86656535	      8.43844741	    102.94155225	     50.03974264	      0.00000000	      0.00000000
